
<svg version="1.1" id="SVG_Etrieve_Sigil" xmlns="http://www.w3.org/2000/svg" xmlns:xlink="http://www.w3.org/1999/xlink" x="0px"
	 y="0px" viewBox="0 0 200 200" style="enable-background:new 0 0 200 200;" xml:space="preserve">
<path d="M100,6.67l78.12,19.21c2.62,0.64,4.45,2.98,4.45,5.68v80.26c0,24.02-13.3,45.71-34.72,56.59L100,192.73l-47.85-24.32
	c-21.42-10.88-34.72-32.57-34.72-56.59V31.56c0-2.7,1.83-5.04,4.45-5.68L100,6.67 M100,0L20.34,19.59
	c-5.51,1.36-9.39,6.3-9.39,11.97v80.26c0,26.34,14.79,50.44,38.27,62.37L100,200l50.79-25.81c23.48-11.93,38.27-36.04,38.27-62.37
	V31.56c0-5.68-3.87-10.62-9.39-11.97L100,0L100,0z"/>
<path d="M168.17,36.76L100,20L31.83,36.76c-1.41,0.35-2.39,1.6-2.39,3.05v70.53c0,20.35,11.27,38.73,29.42,47.95L100,179.19
	l41.14-20.91c18.15-9.22,29.42-27.59,29.42-47.95V39.81C170.56,38.36,169.58,37.11,168.17,36.76z M110.57,125.96c0,0-23,16-54.2,6
	c90.6-42,82.4-72.4,82.4-72.4c-20.6,39.8-74.8,63.4-86.6,68c0,0-5.2-40,42.8-56.6c0,0,38-11.4,52.6-25.4
	C147.57,45.56,154.77,94.76,110.57,125.96z"/>
</svg>
