
<svg version="1.1" id="SVG_Home" xmlns="http://www.w3.org/2000/svg" xmlns:xlink="http://www.w3.org/1999/xlink" x="0px" y="0px"
	 viewBox="0 0 200 200" style="enable-background:new 0 0 200 200;" xml:space="preserve">
<path d="M104.78,8.23L104.78,8.23L104.78,8.23 M100,12.25l78.64,66.22c-3.07,2.18-5.07,5.7-5.07,9.67V190h-41.15v-62.86
	c0-6.6-5.17-11.98-11.53-11.98H79.11c-6.36,0-11.53,5.37-11.53,11.98V190H26.43V88.14c0-3.97-2-7.49-5.07-9.67L100,12.25 M100,0
	c-0.6,0-1.2,0.19-1.66,0.58L0.69,82.81c-1.48,1.25-0.43,3.37,1.66,3.37c0,0,0,0,0,0l11.73-0.01c0,0,0,0,0,0
	c1.3,0,2.35,0.88,2.35,1.98v109.88c0,1.09,1.05,1.98,2.35,1.98h57.28c0.84,0,1.53-0.88,1.53-1.98v-70.89c0-1.09,0.68-1.98,1.53-1.98
	h41.78c0.84,0,1.53,0.88,1.53,1.98v70.89c0,1.09,0.68,1.98,1.53,1.98h57.28c1.3,0,2.35-0.88,2.35-1.98V88.14
	c0-1.09,1.05-1.98,2.35-1.98c0,0,0,0,0,0l11.73,0.01c0,0,0,0,0,0c2.09,0,3.14-2.13,1.66-3.37L101.66,0.58C101.2,0.19,100.6,0,100,0
	L100,0z"/>
</svg>
