
<svg version="1.1" id="SVG_Self_Service" xmlns="http://www.w3.org/2000/svg" xmlns:xlink="http://www.w3.org/1999/xlink" x="0px" y="0px"
	 viewBox="0 0 200 200" style="enable-background:new 0 0 200 200;" xml:space="preserve">
<path d="M191.73,97.38h-14.78c-2.59-39.72-35.71-71.25-76.07-71.25c-40.36,0-73.48,31.53-76.07,71.25H10.05c-2.76,0-5,2.24-5,5
	c0,2.76,2.24,5,5,5h181.69c2.76,0,5-2.24,5-5C196.73,99.61,194.5,97.38,191.73,97.38z M100.89,36.12
	c34.85,0,63.47,27.05,66.04,61.25H34.85C37.42,63.17,66.04,36.12,100.89,36.12z"/>
<path d="M100.89,12.94l-0.01,0C100.88,12.94,100.88,12.94,100.89,12.94 M100.89,2.94c-5.52,0-10,4.48-10,10s4.48,10,10,10
	s10-4.48,10-10S106.41,2.94,100.89,2.94L100.89,2.94z"/>
<path d="M22.79,119.94l-6.44,24.32L0.27,139.7V200h97.88v-32.53l-2.65-0.75l4.18-6.34l64.72-10.79l12.21-29.66H22.79z M88.14,190
	H10.27v-37.07l77.88,22.1V190z M157.26,140.65l-63.53,10.59l-7.9,11.96L26.1,146.51l4.39-16.57h131.19L157.26,140.65z"/>
</svg>
