
<svg version="1.1" id="SVG_Settings" xmlns="http://www.w3.org/2000/svg" xmlns:xlink="http://www.w3.org/1999/xlink" x="0px" y="0px"
	 viewBox="0 0 200 200" style="enable-background:new 0 0 200 200;" xml:space="preserve">
<path d="M200.5,95.5h-20.77C177.76,80.57,164.96,69,149.5,69s-28.26,11.57-30.23,26.5H0.5v10h119.1c2.8,13.95,15.14,24.5,29.9,24.5
	s27.11-10.55,29.9-24.5h21.1V95.5z M149.5,120c-11.3,0-20.5-9.2-20.5-20.5S138.2,79,149.5,79S170,88.2,170,99.5S160.8,120,149.5,120
	z"/>
<path d="M201,36H79.67C77.48,21.31,64.79,10,49.5,10S21.52,21.31,19.33,36H1v10h18.51c2.6,14.2,15.05,25,29.99,25
	s27.4-10.8,29.99-25H201V36z M49.5,61C38.2,61,29,51.8,29,40.5S38.2,20,49.5,20S70,29.2,70,40.5S60.8,61,49.5,61z"/>
<path d="M201,155h-84.51c-2.6-14.2-15.05-25-29.99-25c-14.94,0-27.4,10.8-29.99,25H1v10h55.33c2.18,14.69,14.88,26,30.17,26
	c15.29,0,27.98-11.31,30.17-26H201V155z M86.5,181c-11.3,0-20.5-9.2-20.5-20.5S75.2,140,86.5,140s20.5,9.2,20.5,20.5
	S97.8,181,86.5,181z"/>
</svg>
